# AST/ASF file generated using VICON BodyLanguage
# -----------------------------------------------
:version 1.10
:name VICON
:units
  mass 1.0
  length 0.45
  angle deg
:documentation
   .ast/.asf automatically generated from VICON data using
   VICON BodyBuilder and BodyLanguage model FoxedUp or BRILLIANT.MOD
:root
   order TX TY TZ RX RY RZ
   axis XYZ
   position 0 0 0  
   orientation 0 0 0 
:bonedata
  begin
     id 1 
     name lhipjoint
     direction 0.578396 -0.714046 0.394458 
     length 2.21935 
     axis 0 0 0  XYZ
  end
  begin
     id 2 
     name lfemur
     direction 0.34202 -0.939693 0  
     length 6.39105  
     axis 0 0 20  XYZ
    dof rx ry rz
    limits (-160.0 20.0)
           (-70.0 70.0)
           (-60.0 70.0)
  end
  begin
     id 3 
     name ltibia
     direction 0.34202 -0.939693 0   
     length 6.99037   
     axis 0 0 20   XYZ
    dof rx
    limits (-10.0 170.0)
  end
  begin
     id 4 
     name lfoot
     direction 0.0582372 -0.160005 0.985397   
     length 2.06111   
     axis -90 7.62852e-016 20   XYZ
    dof rx rz
    limits (-45.0 90.0)
           (-70.0 20.0)
  end
  begin
     id 5 
     name ltoes
     direction 1.53556e-011 -4.21875e-011 1   
     length 1.04074   
     axis -90 7.62852e-016 20   XYZ
    dof rx
    limits (-90.0 20.0)
  end
  begin
     id 6 
     name rhipjoint
     direction -0.558179 -0.726269 0.40121   
     length 2.182  
     axis 0 0 0  XYZ 
  end
  begin
     id 7 
     name rfemur
     direction -0.34202 -0.939693 0   
     length 6.51172   
     axis 0 0 -20   XYZ
    dof rx ry rz
    limits (-160.0 20.0)
           (-70.0 70.0)
           (-70.0 60.0)
  end
  begin
     id 8 
     name rtibia
     direction -0.34202 -0.939693 0   
     length 7.02607   
     axis 0 0 -20   XYZ
    dof rx
    limits (-10.0 170.0)
 end
 begin
     id 9 
     name rfoot
     direction -0.0788856 -0.216737 0.973038   
     length 1.96734  
     axis -90 -7.62852e-016 -20   XYZ
    dof rx rz
    limits (-45.0 90.0)
           (-20.0 70.0)
  end
  begin
     id 10 
     name rtoes
     direction -1.53567e-011 -4.21783e-011 1   
     length 0.990825   
     axis -90 -7.62852e-016 -20   XYZ
    dof rx
    limits (-90.0 20.0)
  end
  begin
     id 11 
     name lowerback
     direction 0.00668177 0.999323 -0.0361741   
     length 1.7655   
     axis 0 0 0   XYZ
    dof rx ry rz
    limits (-20.0 45.0)
           (-30.0 30.0)
           (-30.0 30.0)
  end
  begin
     id 12 
     name upperback
     direction -0.00222086 0.99851 0.0545167   
     length 1.74912   
     axis 0 0 0   XYZ
    dof rx ry rz
    limits (-20.0 45.0)
           (-30.0 30.0)
           (-30.0 30.0)
  end
  begin
     id 13 
     name thorax
     direction -0.00733971 0.997496 0.0703443   
     length 1.75715   
     axis 0 0 0   XYZ
    dof rx ry rz
    limits (-20.0 45.0)
           (-30.0 30.0)
           (-30.0 30.0)
  end
  begin
     id 14 
     name lowerneck
     direction 0.0279797 0.994795 0.0979765   
     length 1.46939   
     axis 0 0 0   XYZ
    dof rx ry rz
    limits (-20.0 45.0)
           (-30.0 30.0)
           (-30.0 30.0)
  end
  begin
     id 15 
     name upperneck
     direction 0.00339187 0.976776 -0.214238   
     length 1.48018   
     axis 0 0 0   XYZ
    dof rx ry rz
    limits (-20.0 45.0)
           (-30.0 30.0)
           (-30.0 30.0)
  end
  begin
     id 16
     name head
     direction -0.00263506 0.996603 -0.0823096  
     length 1.4976  
     axis 0 0 0   XYZ
    dof rx ry rz
    limits (-20.0 45.0)
           (-30.0 30.0)
           (-30.0 30.0)
  end
  begin
     id 17 
     name lclavicle
     direction 0.894044 0.44508 -0.0508781  
     length 3.03024  
     axis 0 0 0   XYZ
    dof ry rz
    limits (-20.0 10.0)
           (0.0 20.0)
  end
  begin
     id 18 
     name lhumerus
     direction 1 -4.48961e-011 -2.39475e-018   
     length 4.4661   
     axis 180 -30 -90   XYZ
    dof rx ry rz
    limits (-60.0 90.0)
           (-90.0 90.0)
           (-90.0 90.0)
  end
  begin
     id 19
     name lradius
     direction 1 -4.48961e-011 9.29328e-028   
     length 3.41414   
     axis 180 -30 -90   XYZ
    dof rx
    limits (-10.0 170.0)
  end
  begin
     id 20
     name lwrist
     direction 1 -4.48985e-011 1.53461e-026   
     length 1.70707   
     axis -1.09697e-014 90 90   XYZ
    dof ry
    limits (-180.0 0.0)
 end
  begin
     id 21 
     name lhand
     direction 1 -4.48966e-011 3.06923e-026   
     length 0.328298   
     axis -1.95843e-014 90 90   XYZ
    dof rx rz
    limits (-90.0 90.0)
           (-45.0 45.0)
  end
  begin
     id 22 
     name lfingers
     direction 1 -4.48893e-011 6.13845e-026   
     length 0.264682   
     axis -3.91686e-014 90 90   XYZ
    dof rx
    limits (0.0 90.0)
  end
  begin
     id 23
     name lthumb
     direction 0.707107 -6.34876e-011 0.707107   
     length 0.380032   
     axis -90 45 2.85299e-015   XYZ
    dof rx rz
    limits (-45.0 45.0)
           (-45.0 45.0)
  end
  begin
     id 24 
     name rclavicle
     direction -0.936955 0.347862 -0.0332887   
     length 3.26927  
     axis 0 0 0   XYZ 
    dof ry rz
    limits (-10.0 20.0)
           (-20.0 0.0)
  end
  begin
     id 25 
     name rhumerus
     direction -1 -4.4896e-011 1.78637e-018  
     length 4.40431   
     axis 180 30 90   XYZ
    dof rx ry rz
    limits (-90.0 60.0)
           (-90.0 90.0)
           (-90.0 90.0)
  end
  begin
     id 26 
     name rradius
     direction -1 -4.48955e-011 9.34036e-027   
     length 3.04688   
     axis 180 30 90   XYZ
    dof rx
    limits (-10.0 170.0)
  end
  begin
     id 27 
     name rwrist
     direction -1 -4.49011e-011 1.53461e-026   
     length 1.52344   
     axis -1.09697e-014 -90 -90   XYZ
    dof ry
    limits (-180.0 0.0)
  end
  begin
     id 28
     name rhand
     direction -1 -4.48834e-011 3.06923e-026   
     length 0.500489   
     axis -1.95843e-014 -90 -90   XYZ
    dof rx rz
    limits (-90.0 90.0)
           (-45.0 45.0)
  end
  begin
     id 29
     name rfingers
     direction -1 -4.48967e-011 6.13845e-026   
     length 0.403507   
     axis -3.91686e-014 -90 -90   XYZ
    dof rx
    limits (0.0 90.0)
  end
  begin
     id 30
     name rthumb
     direction -0.707107 -6.34826e-011 0.707107   
     length 0.579358   
     axis -90 -45 -2.85299e-015   XYZ
    dof rx rz
    limits (-45.0 45.0)
           (-45.0 45.0)
  end
:hierarchy
  begin
    root lhipjoint rhipjoint lowerback
    lhipjoint lfemur
    lfemur ltibia
    ltibia lfoot
    lfoot ltoes
    rhipjoint rfemur
    rfemur rtibia
    rtibia rfoot
    rfoot rtoes
    lowerback upperback
    upperback thorax
    thorax lowerneck lclavicle rclavicle
    lowerneck upperneck
    upperneck head
    lclavicle lhumerus
    lhumerus lradius
    lradius lwrist
    lwrist lhand lthumb
    lhand lfingers
    rclavicle rhumerus
    rhumerus rradius
    rradius rwrist
    rwrist rhand rthumb
    rhand rfingers
  end

#!OML:ASF H:\IndianDance\Patient Classification 1\Patient 1\Session 1\dancer.ASF
:FULLY-SPECIFIED
:DEGREES
1217
root 1.7212 15.3885 -22.5947 912.976 -125.056 -193.249
lowerback 19.631 3.81328 -0.138129
upperback -5.36725 5.30326 1.09335
thorax -17.5014 2.44233 -0.465208
lowerneck -12.8816 10.8901 11.3834
upperneck 11.4723 12.5425 -0.171526
head 6.31122 6.55968 -0.604043
rclavicle 7.36851e-014 1.19271e-014
rhumerus 21.304 57.4715 -55.241
rradius 93.4126
rwrist -28.1476
rhand 19.6226 -12.5245
rfingers 7.12502
rthumb 44.1833 -36.3387
lclavicle 7.36851e-014 1.19271e-014
lhumerus 30.71 -2.40847 20.1731
lradius 54.1207
lwrist -2.94622
lhand 27.1496 26.307
lfingers 7.12502
lthumb 51.1271 -313.083
rfemur -16.5786 -18.7428 25.3892
rtibia 39.4759
rfoot -18.6962 -7.33629
rtoes -9.30334
lfemur -64.0577 36.8574 -5.24669
ltibia 102.936
lfoot 29.2584 -19.2294
ltoes 29.5649
1218
root 1.68879 15.3971 -22.6577 912.628 -125.18 -193.297
lowerback 19.7805 3.92442 -0.720661
upperback -5.17329 5.32389 1.27557
thorax -17.4345 2.52825 0.062248
lowerneck -13.0167 10.9151 11.5141
upperneck 11.327 12.5185 -0.0891543
head 6.28835 6.55473 -0.596504
rclavicle 8.15188e-014 1.03368e-014
rhumerus 21.2307 57.2452 -54.5286
rradius 94.6085
rwrist -25.5595
rhand 17.2369 -11.9276
rfingers 7.12502
rthumb 41.9529 -36.5335
lclavicle 8.15188e-014 1.03368e-014
lhumerus 31.3119 -2.10995 19.2488
lradius 54.5981
lwrist -5.64615
lhand 23.6953 26.3794
lfingers 7.12502
lthumb 47.9606 -311.389
rfemur -15.9369 -18.9746 25.5676
rtibia 39.1373
rfoot -18.7609 -7.47672
rtoes -9.71905
lfemur -66.384 38.9878 -6.18338
ltibia 106.832
lfoot 31.2905 -20.0597
ltoes 29.2483
1219
root 1.65565 15.406 -22.7141 912.342 -125.332 -193.336
lowerback 19.8052 4.01643 -1.24151
upperback -4.99645 5.3317 1.43765
thorax -17.3033 2.60062 0.543943
lowerneck -13.1535 10.9298 11.6237
upperneck 11.2157 12.4795 0.0244049
head 6.27254 6.54464 -0.576975
rclavicle 5.08361e-014 -7.95139e-016
rhumerus 20.8819 57.0581 -54.0941
rradius 95.7704
rwrist -23.1447
rhand 14.6695 -11.2708
rfingers 7.12502
rthumb 39.5404 -36.6339
lclavicle 5.08361e-014 -7.95139e-016
lhumerus 31.8699 -1.82445 18.4051
lradius 55.04
lwrist -8.14152
lhand 20.0233 26.3672
lfingers 7.12502
lthumb 44.5568 -309.961
rfemur -15.3613 -19.2663 25.726
rtibia 38.8035
rfoot -18.8339 -7.56802
rtoes -10.3362
lfemur -68.8757 41.2096 -7.33709
ltibia 110.64
lfoot 33.5048 -20.9661
ltoes 28.7836
1220
root 1.62239 15.4145 -22.7647 912.131 -125.518 -193.407
lowerback 19.7484 4.0837 -1.68068
upperback -4.8366 5.3273 1.58802
thorax -17.133 2.65745 0.974997
lowerneck -13.291 10.9352 11.7064
upperneck 11.1381 12.4276 0.171655
head 6.26318 6.53047 -0.543726
rclavicle -2.36989e-014 8.74653e-015
rhumerus 20.2962 56.9169 -53.915
rradius 96.8796
rwrist -20.8616
rhand 12.0362 -10.5061
rfingers 7.12502
rthumb 37.0549 -36.5563
lclavicle -2.36989e-014 8.74653e-015
lhumerus 32.3799 -1.55984 17.6331
lradius 55.4433
lwrist -10.4468
lhand 16.2142 26.2873
lfingers 7.12502
lthumb 40.9933 -308.794
rfemur -14.8312 -19.6239 25.8863
rtibia 38.4724
rfoot -18.913 -7.60751
rtoes -11.1002
lfemur -71.5315 43.5192 -8.69439
ltibia 114.343
lfoot 35.8424 -21.9596
ltoes 28.2719
1221
root 1.58961 15.4225 -22.8105 911.975 -125.736 -193.518
lowerback 19.6599 4.12693 -2.03597
upperback -4.69409 5.31273 1.72956
thorax -16.9549 2.69921 1.35339
lowerneck -13.4216 10.9291 11.7622
upperneck 11.0918 12.362 0.347117
head 6.25867 6.51152 -0.499038
rclavicle 2.637e-015 2.70347e-014
rhumerus 19.5092 56.8232 -53.964
rradius 97.9277
rwrist -18.7219
rhand 9.43512 -9.63293
rfingers 7.12502
rthumb 34.5904 -36.2837
lclavicle 2.637e-015 2.70347e-014
lhumerus 32.837 -1.32456 16.9294
lradius 55.8116
lwrist -12.5787
lhand 12.3271 26.153
lfingers 7.12502
lthumb 37.3301 -307.869
rfemur -14.3222 -20.0473 26.0505
rtibia 38.1401
rfoot -18.9987 -7.601
rtoes -12.0004
lfemur -74.35 45.9204 -10.2714
ltibia 117.921
lfoot 38.2021 -23.0134
ltoes 27.8318
1222
root 1.55782 15.4294 -22.8527 911.862 -125.975 -193.679
lowerback 19.5849 4.14921 -2.31071
upperback -4.56814 5.29099 1.86596
thorax -16.7968 2.72784 1.68141
lowerneck -13.5472 10.915 11.7927
upperneck 11.0799 12.2877 0.543924
head 6.26122 6.49002 -0.444426
rclavicle 6.12505e-015 -3.97569e-015
rhumerus 18.5529 56.787 -54.2269
rradius 98.8936
rwrist -16.6672
rhand 6.88208 -8.65255
rfingers 7.12502
rthumb 32.1634 -35.8256
lclavicle 6.12505e-015 -3.97569e-015
lhumerus 33.2412 -1.11805 16.2989
lradius 56.1452
lwrist -14.5567
lhand 8.43132 25.9764
lfingers 7.12502
lthumb 33.637 -307.16
rfemur -13.8097 -20.5132 26.2233
rtibia 37.8002
rfoot -19.0898 -7.56079
rtoes -12.9804
lfemur -77.3361 48.4246 -12.0836
ltibia 121.358
lfoot 40.4654 -24.0884
ltoes 27.5696
1223
root 1.52741 15.4354 -22.8926 911.766 -126.222 -193.889
lowerback 19.563 4.15725 -2.51977
upperback -4.45359 5.26635 1.99967
thorax -16.6783 2.74708 1.96674
lowerneck -13.6708 10.8948 11.8026
upperneck 11.1005 12.208 0.749603
head 6.27205 6.46677 -0.383895
rclavicle -5.97783e-014 -1.98785e-014
rhumerus 17.4761 56.8062 -54.6577
rradius 99.769
rwrist -14.6542
rhand 4.39126 -7.58969
rfingers 7.12502
rthumb 29.7892 -35.2149
lclavicle -5.97783e-014 -1.98785e-014
lhumerus 33.588 -0.93222 15.7463
lradius 56.4541
lwrist -16.3896
lhand 4.61415 25.7542
lfingers 7.12502
lthumb 30.0019 -306.659
rfemur -13.2637 -20.9858 26.3988
rtibia 37.443
rfoot -19.1861 -7.49987
rtoes -13.9813
lfemur -80.488 51.0375 -14.1523
ltibia 124.629
lfoot 42.5228 -25.1501
ltoes 27.5251
1224
root 1.49854 15.4404 -22.9308 911.678 -126.463 -194.155
lowerback 19.6231 4.1578 -2.66782
upperback -4.348 5.24583 2.13209
thorax -16.6152 2.76091 2.20989
lowerneck -13.7965 10.8707 11.8004
upperneck 11.1523 12.1252 0.950924
head 6.29291 6.44235 -0.322241
rclavicle -4.51676e-014 -1.43125e-014
rhumerus 16.2978 56.8684 -55.2422
rradius 100.537
rwrist -12.6136
rhand 1.98562 -6.45793
rfingers 7.12502
rthumb 27.4908 -34.4713
lclavicle -4.51676e-014 -1.43125e-014
lhumerus 33.8713 -0.76961 15.2562
lradius 56.7604
lwrist -18.0548
lhand 0.89847 25.5253
lfingers 7.12502
lthumb 26.4507 -306.3
rfemur -12.6625 -21.4368 26.5815
rtibia 37.0582
rfoot -19.2828 -7.43209
rtoes -15.0026
lfemur -83.8179 53.757 -16.4932
ltibia 127.711
lfoot 44.3204 -26.1773
ltoes 27.6545
1225
root 1.4715 15.4442 -22.9677 911.597 -126.688 -194.487
lowerback 19.7691 4.15334 -2.75998
upperback -4.24174 5.23199 2.27074
thorax -16.5996 2.77176 2.42193
lowerneck -13.9191 10.8492 11.7929
upperneck 11.2195 12.0506 1.13124
head 6.31982 6.4207 -0.26506
rclavicle -5.02118e-014 -2.14687e-014
rhumerus 15.0675 56.9718 -55.9298
rradius 101.19
rwrist -10.4751
rhand -0.37513 -5.27689
rfingers 7.12502
rthumb 25.231 -33.6288
lclavicle -5.02118e-014 -2.14687e-014
lhumerus 34.0845 -0.619151 14.827
lradius 57.0756
lwrist -19.5366
lhand -2.70976 25.3084
lfingers 7.12502
lthumb 22.9925 -306.043
rfemur -11.9904 -21.8388 26.776
rtibia 36.6366
rfoot -19.38 -7.36029
rtoes -16.0157
lfemur -87.3552 56.5543 -19.1305
ltibia 130.578
lfoot 45.8626 -27.1675
ltoes 27.9307
1226
root 1.44628 15.4465 -23.0035 911.531 -126.888 -194.897
lowerback 20.0007 4.14835 -2.79579
upperback -4.12912 5.23128 2.41832
thorax -16.6249 2.78279 2.60388
lowerneck -14.0371 10.8342 11.7947
upperneck 11.2892 11.9894 1.27092
head 6.35067 6.40319 -0.220305
rclavicle -1.40951e-014 1.35174e-014
rhumerus 13.8155 57.1147 -56.6776
rradius 101.727
rwrist -8.21438
rhand -2.75812 -4.05144
rfingers 7.12502
rthumb 22.9461 -32.7059
lclavicle -1.40951e-014 1.35174e-014
lhumerus 34.2275 -0.485963 14.4363
lradius 57.4078
lwrist -20.8092
lhand -6.2862 25.1089
lfingers 7.12502
lthumb 19.5572 -305.855
rfemur -11.2407 -22.1701 26.99
rtibia 36.1756
rfoot -19.4723 -7.29245
rtoes -17.0047
lfemur -91.1351 59.381 -22.0817
ltibia 133.207
lfoot 47.1942 -28.1573
ltoes 28.3489
1227
root 1.42294 15.4473 -23.0378 911.479 -127.059 -195.382
lowerback 20.3083 4.14439 -2.7748
upperback -4.00539 5.24622 2.57441
thorax -16.6792 2.79504 2.7549
lowerneck -14.152 10.8247 11.7951
upperneck 11.3488 11.9417 1.37701
head 6.38028 6.3894 -0.184764
rclavicle 4.52111e-014 7.95139e-015
rhumerus 12.5558 57.2735 -57.4683
rradius 102.134
rwrist -5.77035
rhand -5.15698 -2.705
rfingers 7.12502
rthumb 20.6426 -31.6273
lclavicle 4.52111e-014 7.95139e-015
lhumerus 34.3096 -0.371002 14.0761
lradius 57.7448
lwrist -21.8999
lhand -9.92397 24.8995
lfingers 7.12502
lthumb 16.0569 -305.746
rfemur -10.4176 -22.4268 27.2226
rtibia 35.6796
rfoot -19.553 -7.22786
rtoes -17.9784
lfemur -95.196 62.142 -25.3824
ltibia 135.571
lfoot 48.3602 -29.2073
ltoes 28.7735
